<?xml version="1.0" encoding="UTF-8" standalone="no"?>
<svg
   xmlns:dc="http://purl.org/dc/elements/1.1/"
   xmlns:cc="http://creativecommons.org/ns#"
   xmlns:rdf="http://www.w3.org/1999/02/22-rdf-syntax-ns#"
   xmlns:svg="http://www.w3.org/2000/svg"
   xmlns="http://www.w3.org/2000/svg"
   version="1.1"
   id="svg9049"
   viewBox="0 0 200 200"
   height="200"
   width="200">
  <defs
     id="defs9051">
    <clipPath
       id="clipPath4266"
       clipPathUnits="userSpaceOnUse">
      <path
         id="path4268"
         d="m 103.34473,60.707118 0.82141,47.057252 50.37647,-0.87934 -0.82141,-47.057256 -50.37647,0.879344 z" />
    </clipPath>
    <clipPath
       clipPathUnits="userSpaceOnUse"
       id="clipPath4362">
      <path
         d="m 284.84609,60.768462 0.81695,46.803018 38.8956,-0.67893 -0.81696,-46.803016 -38.89559,0.678928 z"
         id="path4364" />
    </clipPath>
    <clipPath
       clipPathUnits="userSpaceOnUse"
       id="clipPath4420">
      <path
         d="m 275.55438,78.203384 6.82303,21.274462 16.79919,-5.387748 -6.82303,-21.274461 -16.79919,5.387747 z"
         id="path4422" />
    </clipPath>
    <clipPath
       clipPathUnits="userSpaceOnUse"
       id="clipPath4478">
      <path
         d="M 277.987,48.125729 256.53683,92.455517 298.36594,112.69567 319.81611,68.365884 277.987,48.125729 Z"
         id="path4480" />
    </clipPath>
  </defs>
  <metadata
     id="metadata9054">
    <rdf:RDF>
      <cc:Work
         rdf:about="">
        <dc:format>image/svg+xml</dc:format>
        <dc:type
           rdf:resource="http://purl.org/dc/dcmitype/StillImage" />
        <dc:title></dc:title>
      </cc:Work>
    </rdf:RDF>
  </metadata>
  <g
     style="fill:#00a0b2;fill-opacity:1"
     transform="matrix(0.31870223,0,0,0.31872113,27.630393,35.939479)"
     id="g5807">
    <path
       style="fill:#00a0b2;fill-opacity:1"
       id="path5809"
       d="m 345.176,382.016 -9.996,-45.392 c -0.567,-2.669 -1.995,-4.668 -4.284,-5.995 -2.475,-1.335 -4.948,-1.52 -7.42,-0.568 l -1.43,0.568 -3.43,0.855 c -1.525,0.376 -3.285,0.808 -5.283,1.283 -1.999,0.476 -4.326,0.948 -6.995,1.427 -2.655,0.476 -5.476,0.907 -8.419,1.287 -2.949,0.373 -6.132,0.712 -9.561,0.999 -3.43,0.281 -6.852,0.425 -10.281,0.425 -24.174,0 -45.922,-6.517 -65.239,-19.555 -19.32,-13.042 -33.548,-30.696 -42.683,-52.961 l 110.486,0 c 2.098,0 4.001,-0.712 5.708,-2.143 1.719,-1.424 2.766,-3.183 3.139,-5.284 l 6.852,-31.977 c 0.574,-2.847 0,-5.42 -1.708,-7.706 -1.903,-2.286 -4.288,-3.43 -7.139,-3.43 l -131.04,0 c -0.571,-12.942 -0.571,-22.934 0,-29.978 l 139.325,0 c 5.144,0 8.186,-2.472 9.137,-7.421 l 6.852,-32.548 c 0.567,-2.664 -0.089,-5.136 -1.999,-7.422 -1.707,-2.284 -4.086,-3.431 -7.132,-3.431 l -133.62,0 c 9.517,-21.317 23.791,-38.066 42.827,-50.248 19.034,-12.185 40.542,-18.274 64.524,-18.274 0.764,-0.38 3.569,-0.284 8.419,0.286 4.853,0.568 7.618,0.808 8.281,0.712 0.657,-0.094 3.142,0.193 7.42,0.855 4.284,0.666 6.427,1 6.427,1 l 4.996,0.998 c 1.431,0.288 2.525,0.522 3.285,0.715 l 1.143,0.284 c 2.472,0.765 4.75,0.525 6.852,-0.711 2.095,-1.241 3.429,-3.094 4.001,-5.568 l 12.278,-45.395 c 0.568,-2.475 0.28,-4.759 -0.855,-6.852 C 336.899,8.563 334.993,7.136 332.899,6.567 315.39,2.19 296.92,0 277.51,0 234.869,0 196.759,12.185 163.163,36.545 129.568,60.907 106.393,93.077 93.64,133.046 l -27.977,0 c -2.666,0 -4.853,0.855 -6.567,2.568 -1.709,1.711 -2.568,3.901 -2.568,6.567 l 0,32.548 c 0,2.664 0.856,4.854 2.568,6.563 1.715,1.715 3.905,2.568 6.567,2.568 l 19.13,0 c -0.575,9.139 -0.666,19.126 -0.288,29.981 l -18.842,0 c -2.474,0 -4.615,0.903 -6.423,2.711 -1.807,1.807 -2.712,3.949 -2.712,6.42 l 0,32.264 c 0,2.478 0.905,4.613 2.712,6.427 1.809,1.808 3.949,2.704 6.423,2.704 l 27.124,0 c 11.991,42.064 34.643,75.52 67.952,100.357 33.311,24.846 72.235,37.261 116.771,37.261 3.62,0 7.282,-0.089 10.995,-0.287 3.72,-0.191 7.187,-0.479 10.424,-0.855 3.234,-0.377 6.424,-0.801 9.565,-1.28 3.138,-0.479 5.995,-0.947 8.562,-1.431 2.57,-0.472 4.997,-0.947 7.279,-1.42 2.286,-0.482 4.332,-0.999 6.143,-1.574 1.807,-0.564 3.323,-0.996 4.565,-1.276 1.239,-0.287 2.238,-0.626 2.994,-0.999 l 1.431,-0.288 c 2.095,-0.76 3.713,-2.142 4.853,-4.144 1.143,-1.987 1.423,-4.132 0.855,-6.415 z M 183.45601,511.69971 A 313.77251,313.7539 0 0 1 -83.718714,157.86834 313.77251,313.7539 0 0 1 269.70912,-109.85185 313.77251,313.7539 0 0 1 538.00583,243.1296 313.77251,313.7539 0 0 1 185.42975,511.97039" />
  </g>
</svg>
